<svg width="46" height="34" viewBox="0 0 46 34" fill="none" xmlns="http://www.w3.org/2000/svg">
<path d="M0.614258 6.0229C0.614258 4.35974 1.96252 3.01147 3.62569 3.01147H6.63712C8.30028 3.01147 9.64854 4.35973 9.64854 6.0229V21.08C9.64854 22.7432 10.9968 24.0915 12.66 24.0915H33.74C35.4031 24.0915 36.7514 22.7432 36.7514 21.08V6.0229C36.7514 4.35973 38.0997 3.01147 39.7628 3.01147H42.7743C44.4374 3.01147 45.7857 4.35974 45.7857 6.0229V25.5972C45.7857 29.7551 42.415 33.1258 38.2571 33.1258H8.14284C3.98492 33.1258 0.614258 29.7551 0.614258 25.5972V6.0229Z" fill="#7E72C8"/>
<path d="M11.1543 4.51715C11.1543 2.0224 13.1767 0 15.6714 0H30.7286C33.2233 0 35.2457 2.02239 35.2457 4.51714V21.08C35.2457 21.9116 34.5716 22.5857 33.74 22.5857H12.66C11.8284 22.5857 11.1543 21.9116 11.1543 21.08V4.51715Z" fill="#7E72C8"/>
</svg>
